HIERARCHY
ROOT Hips
{
	OFFSET 0.000000 89.005402 0.000000
	CHANNELS 6 Xposition Yposition Zposition Xrotation Yrotation Zrotation
	JOINT Spine
	{
		OFFSET 0.116900 10.681000 0.373400
		CHANNELS 3 Xrotation Yrotation Zrotation
		JOINT Spine1
		{
			OFFSET 0.000000 13.840401 0.053500
			CHANNELS 3 Xrotation Yrotation Zrotation
			JOINT Spine2
			{
				OFFSET 0.000000 14.712700 -0.366200
				CHANNELS 3 Xrotation Yrotation Zrotation
				JOINT Neck
				{
					OFFSET 0.000000 35.415497 -3.314200
					CHANNELS 3 Xrotation Yrotation Zrotation
					JOINT Head
					{
						OFFSET 0.000000 16.899200 1.218300
						CHANNELS 3 Xrotation Yrotation Zrotation
						JOINT HeadTop_End
						{
							OFFSET 0.000000 22.206207 2.192500
							CHANNELS 3 Xrotation Yrotation Zrotation
							End Site
							{
								OFFSET 0.000000 22.314178 0.000000
							}
						}
					}
				}
				JOINT LeftShoulder
				{
					OFFSET 12.896400 26.716293 -4.548400
					CHANNELS 3 Xrotation Yrotation Zrotation
					JOINT LeftArm
					{
						OFFSET 19.027000 -4.857010 -1.718400
						CHANNELS 3 Xrotation Yrotation Zrotation
						JOINT LeftForeArm
						{
							OFFSET 24.179897 0.000000 0.000000
							CHANNELS 3 Xrotation Yrotation Zrotation
							JOINT LeftHand
							{
								OFFSET 27.156403 0.000000 0.000000
								CHANNELS 3 Xrotation Yrotation Zrotation
								JOINT LeftHandIndex1
								{
									OFFSET 16.441200 0.000000 0.000000
									CHANNELS 3 Xrotation Yrotation Zrotation
									JOINT LeftHandIndex2
									{
										OFFSET 4.821899 0.000000 0.000000
										CHANNELS 3 Xrotation Yrotation Zrotation
										JOINT LeftHandIndex3
										{
											OFFSET 6.386497 0.000000 0.000000
											CHANNELS 3 Xrotation Yrotation Zrotation
											JOINT LeftHandIndex4
											{
												OFFSET 5.188988 0.000000 0.000000
												CHANNELS 3 Xrotation Yrotation Zrotation
												End Site
												{
													OFFSET -0.178703 5.185913 0.000177
												}
											}
										}
									}
								}
								JOINT LeftHandThumb1
								{
									OFFSET 6.534897 -5.032593 5.900300
									CHANNELS 3 Xrotation Yrotation Zrotation
									JOINT LeftHandThumb2
									{
										OFFSET 3.818176 -2.204422 2.204423
										CHANNELS 3 Xrotation Yrotation Zrotation
										JOINT LeftHandThumb3
										{
											OFFSET 3.252098 -1.877594 1.877601
											CHANNELS 3 Xrotation Yrotation Zrotation
											JOINT LeftHandThumb4
											{
												OFFSET 5.251778 -3.032120 3.032117
												CHANNELS 3 Xrotation Yrotation Zrotation
												End Site
												{
													OFFSET 0.000023 6.780014 0.000000
												}
											}
										}
									}
								}
							}
						}
					}
				}
				JOINT RightShoulder
				{
					OFFSET -12.896300 26.716293 -4.548400
					CHANNELS 3 Xrotation Yrotation Zrotation
					JOINT RightArm
					{
						OFFSET -19.027000 -4.857010 -1.718400
						CHANNELS 3 Xrotation Yrotation Zrotation
						JOINT RightForeArm
						{
							OFFSET -24.179897 0.000000 0.000000
							CHANNELS 3 Xrotation Yrotation Zrotation
							JOINT RightHand
							{
								OFFSET -27.156403 0.000000 0.000000
								CHANNELS 3 Xrotation Yrotation Zrotation
								JOINT RightHandThumb1
								{
									OFFSET -6.591202 -4.852203 5.988100
									CHANNELS 3 Xrotation Yrotation Zrotation
									JOINT RightHandThumb2
									{
										OFFSET -3.818176 -2.204422 2.204423
										CHANNELS 3 Xrotation Yrotation Zrotation
										JOINT RightHandThumb3
										{
											OFFSET -3.252098 -1.877594 1.877601
											CHANNELS 3 Xrotation Yrotation Zrotation
											JOINT RightHandThumb4
											{
												OFFSET -5.251778 -3.032120 3.032117
												CHANNELS 3 Xrotation Yrotation Zrotation
												End Site
												{
													OFFSET -0.000023 6.780014 0.000000
												}
											}
										}
									}
								}
								JOINT RightHandIndex1
								{
									OFFSET -16.029404 0.000000 0.000000
									CHANNELS 3 Xrotation Yrotation Zrotation
									JOINT RightHandIndex2
									{
										OFFSET -5.213303 0.000000 0.000000
										CHANNELS 3 Xrotation Yrotation Zrotation
										JOINT RightHandIndex3
										{
											OFFSET -6.386528 0.000000 0.000000
											CHANNELS 3 Xrotation Yrotation Zrotation
											JOINT RightHandIndex4
											{
												OFFSET -5.189026 0.000000 0.000000
												CHANNELS 3 Xrotation Yrotation Zrotation
												End Site
												{
													OFFSET 0.236702 5.183624 0.001972
												}
											}
										}
									}
								}
							}
						}
					}
				}
			}
		}
	}
	JOINT LeftUpLeg
	{
		OFFSET 14.073000 -7.904099 -1.463000
		CHANNELS 3 Xrotation Yrotation Zrotation
		JOINT LeftLeg
		{
			OFFSET -0.109806 -34.073280 4.093200
			CHANNELS 3 Xrotation Yrotation Zrotation
			JOINT LeftFoot
			{
				OFFSET 0.109806 -29.899420 -6.319000
				CHANNELS 3 Xrotation Yrotation Zrotation
				JOINT LeftToeBase
				{
					OFFSET 1.551100 -14.988700 20.535801
					CHANNELS 3 Xrotation Yrotation Zrotation
					JOINT LeftToe_End
					{
						OFFSET 0.221200 0.570800 13.248301
						CHANNELS 3 Xrotation Yrotation Zrotation
						End Site
						{
							OFFSET 0.000000 13.262435 0.000000
						}
					}
				}
			}
		}
	}
	JOINT RightUpLeg
	{
		OFFSET -13.839300 -7.904099 -1.463000
		CHANNELS 3 Xrotation Yrotation Zrotation
		JOINT RightLeg
		{
			OFFSET 0.109694 -34.073219 4.093300
			CHANNELS 3 Xrotation Yrotation Zrotation
			JOINT RightFoot
			{
				OFFSET -0.109694 -29.899384 -6.319200
				CHANNELS 3 Xrotation Yrotation Zrotation
				JOINT RightToeBase
				{
					OFFSET -1.551100 -14.988700 20.535801
					CHANNELS 3 Xrotation Yrotation Zrotation
					JOINT RightToe_End
					{
						OFFSET -0.221200 0.570900 13.248299
						CHANNELS 3 Xrotation Yrotation Zrotation
						End Site
						{
							OFFSET 0.000000 13.262440 0.000000
						}
					}
				}
			}
		}
	}
}
MOTION
Frames: 4
Frame Time: 0.033333
0.031978 55.836594 -24.723137 -7.253885 -0.943286 -0.431526 0.735979 0.109654 0.400474 1.204986 0.219552 0.838184 1.204708 0.223264 0.837712 7.033726 0.246466 0.514946 -1.042385 -0.222874 5.574162 0.000000 0.000000 -0.000000 -0.094779 3.629268 0.781618 -12.457696 -8.277157 -29.554379 -0.000014 -49.517147 -0.000014 -18.203752 1.978272 1.342755 -3.055014 -3.171535 -31.484259 0.408203 2.339698 -19.789570 0.000008 -0.000012 -0.000002 -0.000000 -0.000000 0.000001 -4.247369 3.165263 0.071864 12.941458 35.181136 -7.700519 9.551816 25.223253 -3.165174 0.000000 -0.000000 0.000003 -0.472932 -5.996440 -1.647429 -17.612450 25.773379 14.486107 0.000002 2.043342 -0.000001 -15.678336 13.670426 12.856829 -11.079887 -7.224184 -3.699373 4.880279 -9.280954 -0.313009 1.322262 -3.879964 -4.499362 0.000001 0.000000 0.000002 -1.405232 9.070280 9.007843 0.347497 -2.174653 18.155165 0.006709 -0.305601 2.508542 0.000001 -0.000001 -0.000000 -67.614167 -3.654619 18.672211 92.593883 6.174399 1.216420 -14.734064 2.078113 -10.696789 -0.020497 -0.000014 0.000001 -0.000000 -0.000000 -0.000000 -68.894349 0.975855 -15.396298 91.857076 -7.329221 -2.493284 -13.674069 -3.733129 9.138956 -0.000024 0.000000 0.000000 0.000000 0.000000 0.000000 
0.048046 55.838928 -24.731499 -7.276110 -0.729581 -0.526937 0.847759 0.099467 0.381896 1.383105 0.199625 0.794222 1.382859 0.203677 0.793718 6.228523 0.157858 0.550507 -1.602767 -0.710118 5.982428 0.000000 -0.000000 0.000000 -0.001087 3.487598 -0.008640 -8.476955 -12.195380 -33.057323 -0.000013 -44.173808 -0.000008 -15.052451 4.042652 -1.802147 -3.135451 -3.605490 -30.431471 0.382101 2.265947 -19.140386 -0.000016 0.000007 -0.000013 -0.000002 -0.000000 -0.000001 -5.124804 2.678797 -0.712933 12.988180 35.229095 -7.739427 9.287911 24.769772 -3.016036 0.000000 0.000000 0.000005 -0.394248 -5.466491 -1.466380 -14.439262 23.355186 20.452740 0.000004 1.749737 0.000003 -13.366700 8.951352 11.827504 -11.097066 -7.144448 -3.818776 4.637198 -8.634119 -0.225405 1.278227 -3.742400 -4.511424 -0.000001 0.000000 -0.000001 -1.453500 9.029023 9.312221 0.334870 -2.135801 17.819673 0.006112 -0.292087 2.397409 -0.000001 0.000006 -0.000004 -67.788705 -3.545915 18.489939 92.553858 6.195490 1.489931 -14.643412 2.054536 -10.637686 -0.003332 -0.000002 0.000002 -0.000000 0.000002 0.000000 -68.718991 1.026623 -15.588375 91.878974 -7.302074 -2.261268 -13.746744 -3.740103 9.165952 0.000015 -0.000003 -0.000003 -0.000000 0.000000 -0.000000 
0.060884 55.831200 -24.708055 -7.057258 -0.521138 -0.608858 0.893978 0.114346 0.372408 1.456539 0.224444 0.764871 1.456301 0.228447 0.764274 5.447938 0.072892 0.527486 -2.216314 -1.181437 6.231587 0.000000 -0.000000 0.000000 0.105642 3.380975 -1.471269 -4.190169 -16.862286 -35.177691 -0.000005 -39.282986 -0.000011 -13.018513 5.627367 -2.359066 -3.116778 -3.403418 -31.027289 0.368923 2.227689 -18.804657 0.000010 -0.000000 0.000016 0.000002 -0.000002 0.000000 -5.321623 2.035012 -0.941274 13.085175 35.328061 -7.819976 9.129841 24.495200 -2.926843 0.000001 -0.000000 0.000001 -0.320798 -4.973103 -1.282763 -14.631812 19.859461 27.405941 -0.000000 1.934572 0.000007 -8.312336 4.963145 10.168656 -11.170590 -6.856859 -4.380158 4.637190 -8.634128 -0.225408 1.261644 -3.690550 -4.515955 -0.000001 0.000001 -0.000001 -1.595902 8.924509 10.200065 0.325591 -2.106741 17.568845 0.005720 -0.282499 2.318765 0.000000 0.000001 -0.000002 -68.171367 -3.552127 18.303172 92.532008 6.215452 1.658867 -14.546314 2.034023 -10.604419 -0.000034 -0.000003 -0.000004 -0.000000 0.000002 0.000000 -68.779103 1.174451 -15.777962 91.926280 -7.265709 -1.959749 -13.815290 -3.749841 9.205285 -0.000032 -0.000005 0.000005 0.000000 0.000000 -0.000000 
0.068813 55.783798 -24.661879 -6.721942 -0.480401 -0.647281 0.933188 0.126879 0.366663 1.520173 0.242613 0.731382 1.519965 0.246303 0.730715 4.535683 0.014644 0.544039 -2.791694 -1.231125 5.826402 -0.000000 0.000000 -0.000000 0.218933 3.346897 -3.342224 0.623283 -20.894476 -36.097854 -0.000007 -35.668064 -0.000018 -11.851576 5.678906 -1.945503 -3.114740 -3.238662 -31.612113 0.371864 2.236292 -18.879847 -0.000010 0.000007 -0.000008 0.000001 -0.000001 -0.000001 -5.061105 1.183519 -0.141118 13.206664 35.451291 -7.920728 9.149123 24.528741 -2.937640 0.000001 0.000000 -0.000001 -0.191556 -4.312926 -0.730335 -14.256025 16.862605 32.997245 -0.000000 1.918303 -0.000003 -5.495049 3.752915 10.544052 -11.221613 -6.629742 -4.782186 4.637187 -8.634125 -0.225400 1.258902 -3.681958 -4.516686 -0.000001 0.000001 -0.000002 -1.696025 8.824642 10.851813 0.321470 -2.093665 17.456375 0.005532 -0.277947 2.281289 0.000001 0.000002 -0.000000 -68.612925 -3.617429 18.131726 92.563079 6.125729 1.874712 -14.515089 2.036613 -10.731234 -0.000002 0.000002 0.000002 0.000000 -0.000000 0.000000 -69.113844 1.285996 -15.834858 92.016404 -7.237389 -1.799555 -13.837902 -3.752577 9.209589 -0.000037 0.000003 -0.000005 -0.000000 0.000000 0.000000 
